<?xml version="1.0" encoding="utf-8"?>
<!-- Generator: Adobe Illustrator 26.0.0, SVG Export Plug-In . SVG Version: 6.00 Build 0)  -->
<svg version="1.1" id="Layer_1" xmlns="http://www.w3.org/2000/svg" xmlns:xlink="http://www.w3.org/1999/xlink" x="0px" y="0px"
	 viewBox="0 0 600 200" style="enable-background:new 0 0 600 200;" xml:space="preserve">
<style type="text/css">
	.st0{fill:#AA935F;}
	.st1{fill:none;stroke:#FFFFFF;stroke-miterlimit:10;}
</style>
<g>
	<g>
		<path class="st0" d="M209.37,31.36c0.49,0,0.86,0,1.24,0c6.86,0,13.71-0.01,20.57,0c1.78,0,3.58-0.07,5.34,0.16
			c6.15,0.81,11.32,3.57,15.36,8.29c3.77,4.4,6.61,9.44,9.54,14.41c2.41,4.08,4.81,8.17,7.19,12.26c0.14,0.24,0.21,0.56,0.21,0.84
			c0.07,6.74,0.15,13.47,0.15,20.21c0,1.15,0.38,1.38,1.44,1.38c9.83-0.03,19.66,0.05,29.48-0.06c3.06-0.04,6.19-0.24,9.15-0.94
			c9.56-2.28,16.89-7.7,21.69-16.35c0.24-0.44,0.26-1.21,0.05-1.67c-0.89-1.92-1.86-3.81-2.91-5.65c-0.65-1.14-1.48-2.17-2.28-3.33
			c-0.15,0.4-0.27,0.65-0.33,0.9c-1.06,4.37-3.34,8.05-6.49,11.18c-4.52,4.48-9.97,7.06-16.38,7.18c-7.2,0.13-14.4,0.05-21.6,0.06
			c-0.79,0-1.57,0-2.37,0c0-4.51,0.01-8.85-0.02-13.18c0-0.5-0.09-1.09-0.35-1.5c-2.36-3.75-4.84-7.43-7.14-11.22
			c-2.92-4.83-5.62-9.8-8.57-14.6c-2.22-3.6-4.88-6.9-8.2-9.57c-6.8-5.48-14.67-7.68-23.31-7.62c-9.67,0.06-19.35,0.01-29.03,0.02
			c-1.7,0-1.84,0.14-1.84,1.82c0,20.57,0,41.14,0.01,61.71c0,0.9,0.11,1.8,0.18,2.83c0.56,0,1,0,1.45,0
			c10.02,0,20.04,0.04,30.05-0.03c2.53-0.02,5.11-0.19,7.59-0.68c10.27-2.05,18.01-7.67,23.16-16.82c0.38-0.67,0.4-1.26,0.02-1.92
			c-1.66-2.85-3.29-5.71-4.94-8.57c-0.08-0.13-0.24-0.22-0.4-0.36c-0.1,0.19-0.19,0.28-0.2,0.38c-1.04,5.59-4.01,10.05-8.29,13.63
			c-4.16,3.48-9,5.56-14.46,5.64c-7.96,0.12-15.92,0.02-23.88,0.01c-0.29,0-0.57-0.06-0.86-0.09
			C209.37,63.84,209.37,47.69,209.37,31.36z M277.94,54.21c0.14-0.06,0.28-0.11,0.41-0.17c0-0.36,0-0.73,0-1.09
			c-0.02-6.81-0.03-13.63-0.09-20.44c-0.01-0.95,0.26-1.21,1.21-1.21c6.89,0.04,13.79,0.01,20.68,0.03c1.67,0,3.35-0.04,5,0.18
			c6.04,0.82,11.04,3.7,15.02,8.24c1.97,2.25,3.78,4.68,5.38,7.2c3.17,4.98,6.09,10.11,9.22,15.11c2.26,3.6,4.61,7.14,7.07,10.6
			c2.97,4.19,6.28,8.07,10.76,10.83c7.24,4.46,15.02,6.31,23.4,4.85c10.09-1.75,17.81-7.14,23.14-15.91
			c0.28-0.46,0.5-0.97,0.81-1.59c-2.94,0-5.68,0.06-8.42-0.03c-1.18-0.04-1.97,0.32-2.73,1.2c-6.89,7.96-18.46,10.52-28.44,6
			c-5.44-2.47-9.07-6.83-12.46-11.41c-4.57-6.17-8.47-12.76-12.1-19.52c-2.74-5.09-5.78-10.04-9.82-14.18
			c-6.55-6.71-14.76-10.04-24.06-10.25c-10.47-0.24-20.95-0.09-31.42-0.1c-1.38,0-1.51,0.14-1.51,1.51c-0.01,4.49-0.01,8.99,0,13.48
			c0,0.4,0.04,0.85,0.21,1.2c1.43,2.88,2.8,5.79,4.37,8.59C274.9,49.7,276.47,51.93,277.94,54.21z M346.59,50.65
			c0.2-0.7,0.31-1.1,0.42-1.5c1.03-3.68,2.76-7.03,5.32-9.82c5.83-6.33,13.12-8.95,21.67-7.82c6.43,0.85,11.61,3.98,15.74,8.93
			c0.29,0.34,0.85,0.62,1.29,0.64c2.55,0.06,5.1,0.03,7.65,0.02c0.28,0,0.55-0.06,1.25-0.14c-1.87-2.76-3.28-5.57-5.35-7.76
			c-8.76-9.29-19.57-12.4-31.93-9.51c-9.44,2.21-16.39,7.93-21.18,16.34c-0.44,0.78-0.41,1.33,0.01,2.04
			c1.33,2.25,2.61,4.53,3.93,6.79C345.72,49.4,346.1,49.9,346.59,50.65z"/>
		<path class="st0" d="M209.37,31.36c0,16.33,0,32.48,0,48.72c0.29,0.03,0.58,0.09,0.86,0.09c7.96,0.01,15.92,0.11,23.88-0.01
			c5.47-0.08,10.3-2.16,14.46-5.64c4.28-3.58,7.25-8.04,8.29-13.63c0.02-0.1,0.1-0.19,0.2-0.38c0.16,0.14,0.32,0.22,0.4,0.36
			c1.65,2.85,3.29,5.72,4.94,8.57c0.38,0.66,0.36,1.25-0.02,1.92c-5.15,9.15-12.9,14.77-23.16,16.82c-2.48,0.49-5.05,0.66-7.59,0.68
			c-10.02,0.07-20.04,0.03-30.05,0.03c-0.45,0-0.9,0-1.45,0c-0.07-1.03-0.18-1.93-0.18-2.83c-0.01-20.57-0.01-41.14-0.01-61.71
			c0-1.68,0.14-1.82,1.84-1.82c9.68,0,19.35,0.05,29.03-0.02c8.64-0.06,16.51,2.15,23.31,7.62c3.32,2.67,5.98,5.97,8.2,9.57
			c2.95,4.81,5.65,9.77,8.57,14.6c2.29,3.79,4.78,7.47,7.14,11.22c0.26,0.41,0.34,0.99,0.35,1.5c0.03,4.33,0.02,8.66,0.02,13.18
			c0.79,0,1.58,0,2.37,0c7.2-0.01,14.4,0.07,21.6-0.06c6.41-0.12,11.86-2.69,16.38-7.18c3.15-3.12,5.43-6.81,6.49-11.18
			c0.06-0.26,0.18-0.5,0.33-0.9c0.81,1.16,1.64,2.2,2.28,3.33c1.05,1.84,2.02,3.73,2.91,5.65c0.21,0.46,0.2,1.23-0.05,1.67
			c-4.8,8.65-12.13,14.07-21.69,16.35c-2.96,0.7-6.09,0.91-9.15,0.94c-9.83,0.11-19.65,0.03-29.48,0.06c-1.06,0-1.44-0.23-1.44-1.38
			c0-6.74-0.08-13.47-0.15-20.21c0-0.28-0.07-0.6-0.21-0.84c-2.39-4.09-4.79-8.18-7.19-12.26c-2.93-4.97-5.76-10.01-9.54-14.41
			c-4.04-4.72-9.21-7.48-15.36-8.29c-1.76-0.23-3.56-0.16-5.34-0.16c-6.86-0.01-13.71,0-20.57,0
			C210.23,31.36,209.86,31.36,209.37,31.36z"/>
		<path class="st0" d="M277.94,54.21c-1.47-2.29-3.04-4.51-4.37-6.87c-1.57-2.8-2.95-5.71-4.37-8.59c-0.17-0.35-0.21-0.8-0.21-1.2
			c-0.01-4.49-0.01-8.99,0-13.48c0-1.37,0.13-1.51,1.51-1.51c10.47,0.01,20.95-0.13,31.42,0.1c9.31,0.21,17.51,3.54,24.06,10.25
			c4.05,4.14,7.08,9.09,9.82,14.18c3.63,6.76,7.54,13.35,12.1,19.52c3.4,4.59,7.02,8.95,12.46,11.41c9.98,4.52,21.54,1.96,28.44-6
			c0.76-0.88,1.55-1.24,2.73-1.2c2.73,0.09,5.47,0.03,8.42,0.03c-0.32,0.63-0.53,1.13-0.81,1.59c-5.33,8.77-13.05,14.16-23.14,15.91
			c-8.38,1.46-16.16-0.4-23.4-4.85c-4.48-2.76-7.78-6.63-10.76-10.83c-2.46-3.46-4.81-7-7.07-10.6c-3.13-5-6.05-10.14-9.22-15.11
			c-1.61-2.52-3.41-4.95-5.38-7.2c-3.98-4.54-8.98-7.41-15.02-8.24c-1.64-0.22-3.33-0.18-5-0.18c-6.89-0.02-13.79,0.01-20.68-0.03
			c-0.95-0.01-1.22,0.25-1.21,1.21c0.06,6.81,0.07,13.63,0.09,20.44c0,0.36,0,0.73,0,1.09C278.21,54.1,278.08,54.16,277.94,54.21z"
			/>
		<path class="st0" d="M346.59,50.65c-0.49-0.74-0.86-1.25-1.18-1.79c-1.32-2.26-2.6-4.54-3.93-6.79c-0.42-0.71-0.45-1.26-0.01-2.04
			c4.79-8.41,11.74-14.13,21.18-16.34c12.36-2.9,23.17,0.22,31.93,9.51c2.07,2.19,3.48,5,5.35,7.76c-0.7,0.08-0.97,0.14-1.25,0.14
			c-2.55,0.01-5.1,0.03-7.65-0.02c-0.44-0.01-1.01-0.29-1.29-0.64c-4.13-4.95-9.31-8.08-15.74-8.93
			c-8.55-1.12-15.84,1.49-21.67,7.82c-2.57,2.78-4.29,6.14-5.32,9.82C346.89,49.55,346.78,49.95,346.59,50.65z"/>
	</g>
</g>
<rect x="-0.04" class="st1" width="600" height="200"/>
<g>
	<g>
		<path class="st0" d="M57.81,114.25h6.29c2.86,0,5.22,0.57,7.1,1.7s3.24,2.59,4.1,4.38s1.29,3.68,1.29,5.67
			c0,2.22-0.52,4.19-1.56,5.89c-1.04,1.71-2.42,3.02-4.16,3.94c-1.74,0.92-3.62,1.38-5.65,1.38h-7.4V114.25z M64.61,134.23
			c1.69,0,3.21-0.33,4.54-1s2.38-1.64,3.13-2.91c0.75-1.27,1.13-2.78,1.13-4.54c0-1.8-0.39-3.34-1.18-4.64
			c-0.78-1.29-1.83-2.27-3.13-2.94c-1.3-0.67-2.7-1-4.21-1h-4v17.02H64.61z"/>
		<path class="st0" d="M96.68,114.25v2.95H84.84v6.99h10.57v2.95H84.84v7.08h12.29v2.99H81.76v-22.96H96.68z"/>
		<path class="st0" d="M122.5,114.25v23.72h-0.1l-16.86-17.12l0.06,16.35h-3.11v-23.66h0.16l16.83,17.31l-0.06-16.61H122.5z"/>
		<path class="st0" d="M142.66,114.25v2.95h-6.16v20.01h-3.08v-20.01h-6v-2.95H142.66z"/>
		<path class="st0" d="M157.81,131.18h-8.83l-2.45,6.03h-3.05l10.03-23.91h0.19l10.03,23.91h-3.56L157.81,131.18z M156.76,128.51
			l-3.27-8.38l-3.4,8.38H156.76z"/>
		<path class="st0" d="M171.12,114.25v19.97h11.69v2.99h-14.77v-22.96H171.12z"/>
		<path class="st0" d="M197.82,114.25h6.29c2.86,0,5.22,0.57,7.1,1.7s3.24,2.59,4.1,4.38s1.29,3.68,1.29,5.67
			c0,2.22-0.52,4.19-1.56,5.89c-1.04,1.71-2.42,3.02-4.16,3.94c-1.74,0.92-3.62,1.38-5.65,1.38h-7.4V114.25z M204.62,134.23
			c1.69,0,3.21-0.33,4.54-1s2.38-1.64,3.13-2.91c0.75-1.27,1.13-2.78,1.13-4.54c0-1.8-0.39-3.34-1.18-4.64
			c-0.78-1.29-1.83-2.27-3.13-2.94c-1.3-0.67-2.7-1-4.21-1h-4v17.02H204.62z"/>
		<path class="st0" d="M224.84,114.25v22.96h-3.08v-22.96H224.84z"/>
		<path class="st0" d="M243.48,131.18h-8.83l-2.45,6.03h-3.05l10.03-23.91h0.19l10.03,23.91h-3.56L243.48,131.18z M242.44,128.51
			l-3.27-8.38l-3.4,8.38H242.44z"/>
		<path class="st0" d="M267.57,136.77c-1.49,0.46-2.87,0.7-4.14,0.7c-2.39,0-4.5-0.49-6.32-1.48s-3.22-2.33-4.21-4.05
			s-1.48-3.64-1.48-5.78c0-2.5,0.53-4.66,1.59-6.49c1.06-1.83,2.49-3.23,4.29-4.21s3.77-1.46,5.91-1.46c1.29,0,2.51,0.15,3.65,0.46
			c1.14,0.31,2.17,0.71,3.08,1.22l-1.02,2.83c-0.68-0.38-1.53-0.71-2.56-1c-1.03-0.29-1.95-0.43-2.78-0.43
			c-1.78,0-3.35,0.36-4.72,1.08c-1.37,0.72-2.42,1.75-3.16,3.08c-0.74,1.33-1.11,2.89-1.11,4.67c0,1.65,0.37,3.12,1.11,4.41
			c0.74,1.29,1.79,2.29,3.14,3c1.35,0.71,2.9,1.06,4.64,1.06c0.8,0,1.59-0.08,2.35-0.24s1.4-0.39,1.91-0.68v-4.54h-4.57v-2.95h7.68
			v9.27C270.16,135.79,269.06,136.3,267.57,136.77z"/>
		<path class="st0" d="M296.74,114.25v23.72h-0.1l-16.86-17.12l0.06,16.35h-3.11v-23.66h0.16l16.83,17.31l-0.06-16.61H296.74z"/>
		<path class="st0" d="M303.5,119.91c1.06-1.8,2.48-3.23,4.27-4.3c1.79-1.07,3.74-1.6,5.86-1.6c2.1,0,4.04,0.54,5.84,1.6
			c1.8,1.07,3.23,2.5,4.3,4.3c1.07,1.8,1.6,3.75,1.6,5.84c0,2.12-0.53,4.08-1.59,5.88c-1.06,1.8-2.49,3.22-4.3,4.27
			c-1.81,1.05-3.76,1.57-5.86,1.57c-2.12,0-4.08-0.52-5.88-1.56c-1.8-1.04-3.22-2.45-4.27-4.24s-1.57-3.76-1.57-5.92
			C301.91,123.65,302.44,121.71,303.5,119.91z M306.23,130.13c0.76,1.33,1.8,2.39,3.13,3.17c1.32,0.78,2.77,1.18,4.33,1.18
			c1.57,0,3-0.39,4.3-1.16s2.33-1.83,3.08-3.18c0.75-1.34,1.13-2.81,1.13-4.4s-0.38-3.06-1.14-4.41c-0.76-1.35-1.8-2.42-3.11-3.21
			s-2.75-1.17-4.32-1.17c-1.57,0-3.01,0.4-4.32,1.19s-2.34,1.87-3.1,3.22c-0.75,1.35-1.13,2.83-1.13,4.41
			C305.09,127.35,305.47,128.8,306.23,130.13z"/>
		<path class="st0" d="M339.8,117.27c-0.93-0.27-1.81-0.41-2.64-0.41c-1.25,0-2.24,0.28-2.97,0.84c-0.73,0.56-1.1,1.33-1.1,2.3
			c0,0.95,0.43,1.73,1.29,2.33c0.86,0.6,2.08,1.2,3.67,1.79c1.18,0.42,2.19,0.88,3,1.38c0.81,0.5,1.49,1.19,2.03,2.06
			c0.54,0.88,0.81,2,0.81,3.35c0,1.23-0.31,2.34-0.92,3.33s-1.49,1.78-2.62,2.35s-2.46,0.86-3.99,0.86c-1.42,0-2.78-0.23-4.1-0.68
			s-2.47-1.03-3.46-1.73l1.37-2.45c0.78,0.59,1.73,1.1,2.83,1.51c1.1,0.41,2.13,0.62,3.08,0.62c1.23,0,2.3-0.32,3.22-0.95
			s1.38-1.58,1.38-2.83c0-1.06-0.39-1.9-1.16-2.52c-0.77-0.62-1.86-1.21-3.25-1.76c-1.29-0.49-2.37-0.96-3.22-1.43
			s-1.59-1.11-2.21-1.92c-0.61-0.82-0.92-1.84-0.92-3.06c0-1.8,0.63-3.25,1.89-4.37c1.26-1.11,2.89-1.7,4.91-1.76
			c2.48,0,4.77,0.61,6.89,1.84l-1.17,2.38C341.61,117.9,340.73,117.54,339.8,117.27z"/>
		<path class="st0" d="M362.44,114.25v2.95h-6.16v20.01h-3.08v-20.01h-6v-2.95H362.44z"/>
		<path class="st0" d="M370.44,114.25v22.96h-3.08v-22.96H370.44z"/>
		<path class="st0" d="M391.1,136.85c-1.13,0.41-2.37,0.62-3.7,0.62c-2.35,0-4.42-0.52-6.21-1.56s-3.17-2.43-4.13-4.19
			c-0.96-1.76-1.44-3.69-1.44-5.81c0-2.27,0.49-4.3,1.46-6.11c0.97-1.81,2.32-3.23,4.05-4.25c1.73-1.03,3.68-1.54,5.86-1.54
			c1.29,0,2.5,0.17,3.62,0.51c1.12,0.34,2.13,0.78,3.02,1.33l-1.24,2.89c-1.76-1.19-3.53-1.78-5.3-1.78c-1.48,0-2.85,0.39-4.11,1.17
			s-2.27,1.85-3.02,3.19c-0.75,1.34-1.13,2.82-1.13,4.43c0,1.65,0.34,3.14,1.03,4.48c0.69,1.33,1.67,2.38,2.95,3.13
			c1.28,0.75,2.76,1.13,4.43,1.13c2.05,0,3.84-0.58,5.37-1.75l1.3,2.76C393.17,135.98,392.23,136.43,391.1,136.85z"/>
		<path class="st0" d="M423.17,136.85c-1.13,0.41-2.37,0.62-3.7,0.62c-2.35,0-4.42-0.52-6.21-1.56s-3.17-2.43-4.13-4.19
			c-0.96-1.76-1.44-3.69-1.44-5.81c0-2.27,0.49-4.3,1.46-6.11c0.97-1.81,2.32-3.23,4.05-4.25c1.73-1.03,3.68-1.54,5.86-1.54
			c1.29,0,2.5,0.17,3.62,0.51c1.12,0.34,2.13,0.78,3.02,1.33l-1.24,2.89c-1.76-1.19-3.53-1.78-5.3-1.78c-1.48,0-2.85,0.39-4.11,1.17
			s-2.27,1.85-3.02,3.19c-0.75,1.34-1.13,2.82-1.13,4.43c0,1.65,0.34,3.14,1.03,4.48c0.69,1.33,1.67,2.38,2.95,3.13
			c1.28,0.75,2.76,1.13,4.43,1.13c2.05,0,3.84-0.58,5.37-1.75l1.3,2.76C425.24,135.98,424.3,136.43,423.17,136.85z"/>
		<path class="st0" d="M446.08,114.25v2.95h-11.84v6.99h10.57v2.95h-10.57v7.08h12.29v2.99h-15.37v-22.96H446.08z"/>
		<path class="st0" d="M471.9,114.25v23.72h-0.1l-16.86-17.12l0.06,16.35h-3.11v-23.66h0.16l16.83,17.31l-0.06-16.61H471.9z"/>
		<path class="st0" d="M492.06,114.25v2.95h-6.16v20.01h-3.08v-20.01h-6v-2.95H492.06z"/>
		<path class="st0" d="M509.62,137.21l-5.4-8.48c-0.17,0.02-0.42,0.03-0.76,0.03h-3.4v8.45h-3.08v-22.96h6.13
			c1.57,0,2.96,0.28,4.19,0.83c1.23,0.55,2.19,1.36,2.89,2.43c0.7,1.07,1.05,2.36,1.05,3.86c0,1.42-0.31,2.72-0.94,3.91
			c-0.62,1.19-1.58,2.09-2.87,2.7l5.78,9.24H509.62z M506.97,124.48c0.73-0.87,1.1-1.86,1.1-2.99c0-0.68-0.15-1.34-0.46-2
			c-0.31-0.66-0.79-1.2-1.46-1.63s-1.51-0.65-2.52-0.65h-3.56v8.57h3.33C505.05,125.78,506.24,125.35,506.97,124.48z"/>
		<path class="st0" d="M532.87,114.25v2.95h-11.84v6.99h10.57v2.95h-10.57v7.08h12.29v2.99h-15.37v-22.96H532.87z"/>
	</g>
</g>
</svg>
